<svg width="30" height="31" viewBox="0 0 30 31" fill="none" xmlns="http://www.w3.org/2000/svg">
<path d="M2.81448 15.5005C2.81467 17.9108 3.5296 20.267 4.86884 22.271C6.20809 24.275 8.11151 25.8369 10.3384 26.7591C12.5653 27.6814 15.0157 27.9226 17.3797 27.4522C19.7436 26.9819 21.9151 25.8211 23.6193 24.1167C25.3236 22.4122 26.4842 20.2407 26.9544 17.8767C27.4245 15.5127 27.1831 13.0623 26.2607 10.8355C25.3383 8.60868 23.7762 6.70539 21.7721 5.36631C19.768 4.02723 17.4118 3.3125 15.0015 3.3125C11.77 3.31568 8.67177 4.60079 6.38677 6.88579C4.10176 9.1708 2.81765 12.269 2.81448 15.5005ZM15.9385 10.8125L15.9385 20.1875C15.9305 20.4308 15.8283 20.6616 15.6533 20.8309C15.4784 21.0002 15.2444 21.0949 15.001 21.0949C14.7575 21.0949 14.5236 21.0002 14.3486 20.8309C14.1737 20.6616 14.0714 20.4308 14.0635 20.1875L14.0635 10.8135C14.0635 10.5647 14.1623 10.3261 14.3382 10.1502C14.5141 9.97433 14.7527 9.8755 15.0015 9.8755C15.2502 9.8755 15.4888 9.97433 15.6647 10.1502C15.8406 10.3261 15.9395 10.5647 15.9395 10.8135L15.9385 10.8125Z" fill="#301534"/>
</svg>
